<?xml version="1.0" encoding="UTF-8"?>
<svg id="Layer_2" data-name="Layer 2" xmlns="http://www.w3.org/2000/svg" viewBox="0 0 100 56.43">
  <defs>
    <style>
      .cls-1 {
        fill: #92c2f8;
      }

      .cls-2 {
        fill: #4780e7;
      }

      .cls-3 {
        fill: #ffffff;
      }

      .cls-4 {
        fill: #506793;
      }
    </style>
  </defs>
  <g id="Layer_1-2" data-name="Layer 1">
    <g>
      <g>
        <g>
          <path class="cls-2" d="M99.13,54c-.1-.08-.19-.15-.27-.21l-2.27-2-1.02-.88-.88-.78-1.32-1.16-1.23-1.1c-.2-.18-.61-.48-1.09-.48l-2.58-.02-6.06.02h-5.48s-6.6,0-6.6,0l-7.89-.03c-.09,0-.18,0-.28-.01-.43-.03-.96-.06-1.43.35l-.88.77-1.96,1.73-1.56,1.35c-.35.3-.58.77-.59,1.19,0,.33.13.63.36.84l.91.82,1.97,1.71c.33.28.65.34.94.34.11,0,.21,0,.31-.02h.11c.63-.05,1.32-.06,2.04-.02.25.01.48,0,.7,0,.11,0,.21,0,.33,0l3.64-.02h31.65s0,0,0,0c.67,0,1.1-.28,1.26-.83.23-.77-.42-1.26-.82-1.55Z"/>
          <path class="cls-2" d="M55.38,3.6l2.18,1.98,1.7,1.55.69.62.92.85c.42.39.81.54,1.35.54h12.46s13.86,0,13.86,0h.03c.39,0,.87,0,1.27-.28.55-.37,1.01-.81,1.46-1.24.16-.15.33-.31.49-.46l2.24-2.04c.06-.05.12-.11.19-.17.22-.2.46-.4.61-.61.71-.96-.16-1.77-.45-2.03l-1.24-1.15-.87-.79c-.23-.21-.64-.37-.95-.37h-3.12s-7.05,0-7.05,0h-5.75s-20.83-.01-20.83-.01h0c-.48,0-.87.19-1.08.54-.26.42-.25,1.15.17,1.52l1.73,1.54Z"/>
          <path class="cls-2" d="M89.59,22.49l-.03-.03c-.24-.21-.64-.56-1.12-.56h-29.67s0,0,0,0c-.66,0-1.06.15-1.52.57l-2.06,1.84c-.33.29-.53.75-.53,1.18,0,.38.16.72.45.97l1.35,1.16,1.34,1.17,1.03.9c.34.3.66.58,1.02.87.44.36,1,.56,1.58.56h17.25s.68.01.68.01h.69s9.66,0,9.66,0c.71,0,1.41-.25,1.96-.71.17-.14.33-.29.49-.43.12-.11.25-.22.37-.33l1.04-.9c.39-.34.62-.84.62-1.36,0-.52-.22-1.02-.61-1.36l-3.99-3.53Z"/>
          <path class="cls-2" d="M56,51.16c.15-.14.3-.29.44-.42l.41-.38.6-.52,1.22-1.09.81-.79.6-.53.64-.58c.43-.39.65-.83.65-1.35v-6.12s0-5.5,0-5.5c0-.71-.31-1.39-.85-1.86l-.03-.03c-.06-.06-.13-.11-.19-.17l-.66-.61-.9-.81-.68-.58-3.04-2.76c-.8-.73-1.7-.76-2.4-.09l-.03.02c-.25.24-.72.69-.72,1.26v20.94c0,.19.07.61.33.83.46.4.93.83,1.47,1.36.29.28.66.4,1.02.4.43,0,.85-.17,1.1-.4.07-.07.15-.14.22-.21Z"/>
          <path class="cls-2" d="M93.73,6.15l-1.62,1.48-.94.86c-.42.39-.8.75-1.15,1.11-.33.34-.49.77-.49,1.28v9.88c.01.6.26,1.19.69,1.61l4.76,4.38.08.07c.25.21.68.57,1.23.57.08,0,.17,0,.25-.03.36-.07.67-.34.93-.56l1.71-1.47c.52-.44.81-1.07.81-1.74v-3.16s0-4.49,0-4.49v-5.54s0-1.82,0-1.82c0-.61-.25-1.2-.69-1.62l-.52-.5-.92-.87-.37-.36c-.06-.06-.11-.11-.17-.17-.08-.09-.17-.18-.27-.27-.56-.51-1.36-.5-1.91.01l-.91.85-.52.47Z"/>
        </g>
        <g>
          <path class="cls-3" d="M5.58,4.62l3.18,2.84c.11.1.21.19.32.29.26.24.53.48.83.72.04.03.08.07.12.1.28.24.67.57,1.24.56h26.5s.02,0,.02,0c.55-.02,1.26-.11,1.81-.69.05-.05.12-.11.19-.17.07-.06.15-.12.22-.19l1.16-1.13,1.42-1.28,1.26-1.17,1.9-1.74c.07-.06.15-.13.24-.2.45-.35,1.28-1.01.78-1.94-.33-.61-.86-.61-1.21-.61H8.64c-.39,0-.65.24-.78.37l-1.11,1.01-1.36,1.27c-.22.2-.34.49-.33.8,0,.46.27.91.53,1.14Z"/>
          <path class="cls-3" d="M43.24,51.23l-2.92-2.57-.84-.7c-.44-.36-.81-.57-1.45-.58l-1.38-.02-3.35-.02-10.33.02c-.5,0-.95,0-1.45,0h-1.82s-8.52-.02-8.52-.02h0c-.6,0-1.02.35-1.33.62l-1.22,1.03c-.27.23-.51.46-.77.7l-.08.08c-.36.35-.74.66-1.14,1-.13.11-.26.22-.4.33-.08.07-.16.14-.23.19-.4.33-.71.59-.81,1.1-.1.52.1,1.07.51,1.43l.53.46,1.95,1.74c.21.19.54.41.93.41h29.02s.26,0,.26,0c.89,0,1.48-.01,2.23-.33.15-.07.3-.15.42-.26l.63-.55,1.29-1.16c.06-.05.12-.1.18-.15.25-.21.54-.46.73-.8.18-.33.13-.93-.03-1.23-.16-.3-.42-.53-.64-.71Z"/>
          <path class="cls-3" d="M5.89,50.68l.47-.41.52-.46.72-.65,1.56-1.43c.27-.25.55-.52.88-.85.42-.42.65-.99.65-1.59v-11.1c0-.64-.28-1.25-.75-1.68-.08-.07-.16-.14-.25-.22l-1.83-1.59-.5-.44-1.49-1.26-.68-.62c-.69-.63-1.38-.76-2.05-.37-.23.14-.43.31-.62.49-.07.06-.13.12-.2.18l-.54.45-1.09.99s-.05.04-.08.07c-.22.19-.6.49-.6.97v17.05c0,.56.18.84.52,1.14l1.56,1.4.89.81c.24.22.63.35,1.02.35.33,0,.65-.09.89-.3l.63-.56.38-.36Z"/>
          <path class="cls-3" d="M.74,25.39l2.08,1.78c.23.2.58.3.94.3s.74-.11.99-.32l4.37-4h0c.18-.18.35-.32.51-.46.11-.09.22-.18.32-.28.47-.43.73-1.03.73-1.67v-9.7c0-.65-.29-1.28-.79-1.71-.03-.03-.06-.05-.09-.08l-.79-.72-1.05-.99-1.36-1.22-1.25-1.14s-.1-.09-.15-.14c-.2-.21-.45-.46-.85-.56-.35-.09-.88-.08-1.45.47l-.63.6-.67.63-.73.68s-.08.07-.12.11C.28,7.38,0,8,0,8.66v15.53c0,.57.48.98.74,1.2Z"/>
          <path class="cls-3" d="M42.22,23.08s-.07-.07-.11-.1c-.21-.2-.52-.51-1-.51h-16.33s0,0,0,0c-.57,0-1,.17-1.43.58l-3.41,3.18c-.23.22-.36.53-.36.89,0,.4.16.78.43,1.02l3.24,2.94c.64.58,1.32.59,1.91.58l13.28.03s.02,0,.02,0c.41,0,.74-.13,1.05-.41l.53-.47.65-.61,2.7-2.44.83-.76c.31-.28.49-.66.5-1.04,0-.41-.17-.79-.5-1.09l-2.02-1.79Z"/>
          <path class="cls-3" d="M47.96,28.25c0-.72-.83-1.3-.92-1.36-.61-.4-1.49-.55-2.1.04l-.76.73-.7.62-2.53,2.39-1.53,1.5-.07.07c-.2.19-.47.45-.58.82l-.02.07v12.69c-.01.54.28.81.5,1.01l1.01.96c.17.17.34.33.51.5.28.28.57.56.88.84l2.43,2.18c.23.21.59.48,1.09.48.02,0,.04,0,.06,0,.49-.02.79-.3,1.05-.54l.53-.49c.06-.06.13-.11.19-.17.32-.29.66-.59.92-1.04l.07-.12v-21.2Z"/>
        </g>
      </g>
      <g>
        <g>
          <path class="cls-4" d="M9.18,2.46c0-.44.17-.75.62-.75s.63.3.63.75v.99c0,.43-.17.74-.63.74s-.62-.3-.62-.74v-.99ZM9.46,3.47c0,.26.07.45.33.45s.34-.19.34-.45v-1.03c0-.31-.1-.46-.34-.46s-.34.14-.34.46v1.03Z"/>
          <path class="cls-4" d="M11.91,1.96l.42-.21c.05-.03.08-.03.11-.03.09,0,.14.07.14.13v2.19c0,.08-.06.14-.14.14s-.14-.07-.14-.14v-1.97l-.27.13s-.03.01-.06.01c-.07,0-.13-.06-.13-.13,0-.06.04-.1.08-.12Z"/>
          <path class="cls-4" d="M14.11,1.96l.42-.21c.05-.03.08-.03.11-.03.09,0,.14.07.14.13v2.19c0,.08-.06.14-.14.14s-.14-.07-.14-.14v-1.97l-.27.13s-.03.01-.06.01c-.07,0-.13-.06-.13-.13,0-.06.04-.1.08-.12Z"/>
          <path class="cls-4" d="M16.39,2.46c0-.44.17-.75.62-.75s.63.3.63.75v.99c0,.43-.17.74-.63.74s-.62-.3-.62-.74v-.99ZM16.67,3.47c0,.26.07.45.33.45s.34-.19.34-.45v-1.03c0-.31-.1-.46-.34-.46s-.34.14-.34.46v1.03Z"/>
          <path class="cls-4" d="M19.12,1.96l.42-.21c.05-.03.08-.03.11-.03.09,0,.14.07.14.13v2.19c0,.08-.06.14-.14.14s-.14-.07-.14-.14v-1.97l-.27.13s-.03.01-.06.01c-.07,0-.13-.06-.13-.13,0-.06.04-.1.08-.12Z"/>
          <path class="cls-4" d="M21.32,1.96l.42-.21c.05-.03.08-.03.11-.03.09,0,.14.07.14.13v2.19c0,.08-.06.14-.14.14s-.14-.07-.14-.14v-1.97l-.27.13s-.03.01-.06.01c-.07,0-.13-.06-.13-.13,0-.06.04-.1.08-.12Z"/>
          <path class="cls-4" d="M23.6,2.46c0-.44.17-.75.62-.75s.63.3.63.75v.99c0,.43-.17.74-.63.74s-.62-.3-.62-.74v-.99ZM23.89,3.47c0,.26.07.45.33.45s.34-.19.34-.45v-1.03c0-.31-.1-.46-.34-.46s-.34.14-.34.46v1.03Z"/>
          <path class="cls-4" d="M26.41,2.46c0-.44.17-.75.62-.75s.63.3.63.75v.99c0,.43-.17.74-.63.74s-.62-.3-.62-.74v-.99ZM26.69,3.47c0,.26.07.45.33.45s.34-.19.34-.45v-1.03c0-.31-.1-.46-.34-.46s-.34.14-.34.46v1.03Z"/>
          <path class="cls-4" d="M29.21,2.46c0-.44.17-.75.62-.75s.63.3.63.75v.99c0,.43-.17.74-.63.74s-.62-.3-.62-.74v-.99ZM29.5,3.47c0,.26.07.45.33.45s.34-.19.34-.45v-1.03c0-.31-.1-.46-.34-.46s-.34.14-.34.46v1.03Z"/>
          <path class="cls-4" d="M31.95,1.96l.42-.21c.05-.03.08-.03.11-.03.09,0,.14.07.14.13v2.19c0,.08-.06.14-.14.14s-.14-.07-.14-.14v-1.97l-.27.13s-.03.01-.06.01c-.07,0-.13-.06-.13-.13,0-.06.04-.1.08-.12Z"/>
          <path class="cls-4" d="M34.22,2.46c0-.44.17-.75.62-.75s.63.3.63.75v.99c0,.43-.17.74-.63.74s-.62-.3-.62-.74v-.99ZM34.51,3.47c0,.26.07.45.33.45s.34-.19.34-.45v-1.03c0-.31-.1-.46-.34-.46s-.34.14-.34.46v1.03Z"/>
          <path class="cls-4" d="M36.95,1.96l.42-.21c.05-.03.08-.03.11-.03.09,0,.14.07.14.13v2.19c0,.08-.06.14-.14.14s-.14-.07-.14-.14v-1.97l-.27.13s-.03.01-.06.01c-.07,0-.13-.06-.13-.13,0-.06.04-.1.08-.12Z"/>
          <path class="cls-4" d="M39.16,1.96l.42-.21c.05-.03.08-.03.11-.03.09,0,.14.07.14.13v2.19c0,.08-.06.14-.14.14s-.14-.07-.14-.14v-1.97l-.27.13s-.03.01-.06.01c-.07,0-.13-.06-.13-.13,0-.06.04-.1.08-.12Z"/>
        </g>
        <g>
          <path class="cls-4" d="M11.37,6.14c0-.44.17-.75.62-.75s.63.3.63.75v.99c0,.43-.17.74-.63.74s-.62-.3-.62-.74v-.99ZM11.65,7.14c0,.26.07.45.33.45s.34-.19.34-.45v-1.03c0-.31-.1-.46-.34-.46s-.34.14-.34.46v1.03Z"/>
          <path class="cls-4" d="M14.17,6.14c0-.44.17-.75.62-.75s.63.3.63.75v.99c0,.43-.17.74-.63.74s-.62-.3-.62-.74v-.99ZM14.46,7.14c0,.26.07.45.33.45s.34-.19.34-.45v-1.03c0-.31-.1-.46-.34-.46s-.34.14-.34.46v1.03Z"/>
          <path class="cls-4" d="M16.91,5.63l.42-.21c.05-.03.08-.03.11-.03.09,0,.14.07.14.13v2.19c0,.08-.06.14-.14.14s-.14-.07-.14-.14v-1.97l-.27.13s-.03.01-.06.01c-.07,0-.13-.06-.13-.13,0-.06.04-.1.08-.12Z"/>
          <path class="cls-4" d="M19.11,5.63l.42-.21c.05-.03.08-.03.11-.03.09,0,.14.07.14.13v2.19c0,.08-.06.14-.14.14s-.14-.07-.14-.14v-1.97l-.27.13s-.03.01-.06.01c-.07,0-.13-.06-.13-.13,0-.06.04-.1.08-.12Z"/>
          <path class="cls-4" d="M21.38,6.14c0-.44.17-.75.62-.75s.63.3.63.75v.99c0,.43-.17.74-.63.74s-.62-.3-.62-.74v-.99ZM21.67,7.14c0,.26.07.45.33.45s.34-.19.34-.45v-1.03c0-.31-.1-.46-.34-.46s-.34.14-.34.46v1.03Z"/>
          <path class="cls-4" d="M24.19,6.14c0-.44.17-.75.62-.75s.63.3.63.75v.99c0,.43-.17.74-.63.74s-.62-.3-.62-.74v-.99ZM24.48,7.14c0,.26.07.45.33.45s.34-.19.34-.45v-1.03c0-.31-.1-.46-.34-.46s-.34.14-.34.46v1.03Z"/>
          <path class="cls-4" d="M26.92,5.63l.42-.21c.05-.03.08-.03.11-.03.09,0,.14.07.14.13v2.19c0,.08-.06.14-.14.14s-.14-.07-.14-.14v-1.97l-.27.13s-.03.01-.06.01c-.07,0-.13-.06-.13-.13,0-.06.04-.1.08-.12Z"/>
          <path class="cls-4" d="M29.13,5.63l.42-.21c.05-.03.08-.03.11-.03.09,0,.14.07.14.13v2.19c0,.08-.06.14-.14.14s-.14-.07-.14-.14v-1.97l-.27.13s-.03.01-.06.01c-.07,0-.13-.06-.13-.13,0-.06.04-.1.08-.12Z"/>
          <path class="cls-4" d="M31.4,6.14c0-.44.17-.75.62-.75s.63.3.63.75v.99c0,.43-.17.74-.63.74s-.62-.3-.62-.74v-.99ZM31.69,7.14c0,.26.07.45.33.45s.34-.19.34-.45v-1.03c0-.31-.1-.46-.34-.46s-.34.14-.34.46v1.03Z"/>
          <path class="cls-4" d="M34.14,5.63l.42-.21c.05-.03.08-.03.11-.03.09,0,.14.07.14.13v2.19c0,.08-.06.14-.14.14s-.14-.07-.14-.14v-1.97l-.27.13s-.03.01-.06.01c-.07,0-.13-.06-.13-.13,0-.06.04-.1.08-.12Z"/>
          <path class="cls-4" d="M36.41,6.14c0-.44.17-.75.62-.75s.63.3.63.75v.99c0,.43-.17.74-.63.74s-.62-.3-.62-.74v-.99ZM36.7,7.14c0,.26.07.45.33.45s.34-.19.34-.45v-1.03c0-.31-.1-.46-.34-.46s-.34.14-.34.46v1.03Z"/>
        </g>
        <g>
          <path class="cls-1" d="M60.62,53.49c0-.44.17-.75.62-.75s.63.3.63.75v.99c0,.43-.17.74-.63.74s-.62-.3-.62-.74v-.99ZM60.91,54.49c0,.26.07.45.33.45s.34-.19.34-.45v-1.03c0-.31-.1-.46-.34-.46s-.34.14-.34.46v1.03Z"/>
          <path class="cls-1" d="M63.35,52.98l.42-.21c.05-.03.08-.03.11-.03.09,0,.14.07.14.13v2.19c0,.08-.06.14-.14.14s-.14-.07-.14-.14v-1.97l-.27.13s-.03.01-.06.01c-.07,0-.13-.06-.13-.13,0-.06.04-.1.08-.12Z"/>
          <path class="cls-1" d="M65.56,52.98l.42-.21c.05-.03.08-.03.11-.03.09,0,.14.07.14.13v2.19c0,.08-.06.14-.14.14s-.14-.07-.14-.14v-1.97l-.27.13s-.03.01-.06.01c-.07,0-.13-.06-.13-.13,0-.06.04-.1.08-.12Z"/>
          <path class="cls-1" d="M67.83,53.49c0-.44.17-.75.62-.75s.63.3.63.75v.99c0,.43-.17.74-.63.74s-.62-.3-.62-.74v-.99ZM68.12,54.49c0,.26.07.45.33.45s.34-.19.34-.45v-1.03c0-.31-.1-.46-.34-.46s-.34.14-.34.46v1.03Z"/>
          <path class="cls-1" d="M70.56,52.98l.42-.21c.05-.03.08-.03.11-.03.09,0,.14.07.14.13v2.19c0,.08-.06.14-.14.14s-.14-.07-.14-.14v-1.97l-.27.13s-.03.01-.06.01c-.07,0-.13-.06-.13-.13,0-.06.04-.1.08-.12Z"/>
          <path class="cls-1" d="M72.77,52.98l.42-.21c.05-.03.08-.03.11-.03.09,0,.14.07.14.13v2.19c0,.08-.06.14-.14.14s-.14-.07-.14-.14v-1.97l-.27.13s-.03.01-.06.01c-.07,0-.13-.06-.13-.13,0-.06.04-.1.08-.12Z"/>
          <path class="cls-1" d="M75.04,53.49c0-.44.17-.75.62-.75s.63.3.63.75v.99c0,.43-.17.74-.63.74s-.62-.3-.62-.74v-.99ZM75.33,54.49c0,.26.07.45.33.45s.34-.19.34-.45v-1.03c0-.31-.1-.46-.34-.46s-.34.14-.34.46v1.03Z"/>
          <path class="cls-1" d="M77.85,53.49c0-.44.17-.75.62-.75s.63.3.63.75v.99c0,.43-.17.74-.63.74s-.62-.3-.62-.74v-.99ZM78.13,54.49c0,.26.07.45.33.45s.34-.19.34-.45v-1.03c0-.31-.1-.46-.34-.46s-.34.14-.34.46v1.03Z"/>
          <path class="cls-1" d="M80.65,53.49c0-.44.17-.75.62-.75s.63.3.63.75v.99c0,.43-.17.74-.63.74s-.62-.3-.62-.74v-.99ZM80.94,54.49c0,.26.07.45.33.45s.34-.19.34-.45v-1.03c0-.31-.1-.46-.34-.46s-.34.14-.34.46v1.03Z"/>
          <path class="cls-1" d="M83.39,52.98l.42-.21c.05-.03.08-.03.11-.03.09,0,.14.07.14.13v2.19c0,.08-.06.14-.14.14s-.14-.07-.14-.14v-1.97l-.27.13s-.03.01-.06.01c-.07,0-.13-.06-.13-.13,0-.06.04-.1.08-.12Z"/>
          <path class="cls-1" d="M85.66,53.49c0-.44.17-.75.62-.75s.63.3.63.75v.99c0,.43-.17.74-.63.74s-.62-.3-.62-.74v-.99ZM85.95,54.49c0,.26.07.45.33.45s.34-.19.34-.45v-1.03c0-.31-.1-.46-.34-.46s-.34.14-.34.46v1.03Z"/>
          <path class="cls-1" d="M88.4,52.98l.42-.21c.05-.03.08-.03.11-.03.09,0,.14.07.14.13v2.19c0,.08-.06.14-.14.14s-.14-.07-.14-.14v-1.97l-.27.13s-.03.01-.06.01c-.07,0-.13-.06-.13-.13,0-.06.04-.1.08-.12Z"/>
          <path class="cls-1" d="M90.6,52.98l.42-.21c.05-.03.08-.03.11-.03.09,0,.14.07.14.13v2.19c0,.08-.06.14-.14.14s-.14-.07-.14-.14v-1.97l-.27.13s-.03.01-.06.01c-.07,0-.13-.06-.13-.13,0-.06.04-.1.08-.12Z"/>
          <path class="cls-1" d="M92.87,53.49c0-.44.17-.75.62-.75s.63.3.63.75v.99c0,.43-.17.74-.63.74s-.62-.3-.62-.74v-.99ZM93.16,54.49c0,.26.07.45.33.45s.34-.19.34-.45v-1.03c0-.31-.1-.46-.34-.46s-.34.14-.34.46v1.03Z"/>
        </g>
        <g>
          <path class="cls-1" d="M61.8,49.81c0-.44.17-.75.62-.75s.63.3.63.75v.99c0,.43-.17.74-.63.74s-.62-.3-.62-.74v-.99ZM62.09,50.82c0,.26.07.45.33.45s.34-.19.34-.45v-1.03c0-.31-.1-.46-.34-.46s-.34.14-.34.46v1.03Z"/>
          <path class="cls-1" d="M64.61,49.81c0-.44.17-.75.62-.75s.63.3.63.75v.99c0,.43-.17.74-.63.74s-.62-.3-.62-.74v-.99ZM64.9,50.82c0,.26.07.45.33.45s.34-.19.34-.45v-1.03c0-.31-.1-.46-.34-.46s-.34.14-.34.46v1.03Z"/>
          <path class="cls-1" d="M67.34,49.31l.42-.21c.05-.03.08-.03.11-.03.09,0,.14.07.14.13v2.19c0,.08-.06.14-.14.14s-.14-.07-.14-.14v-1.97l-.27.13s-.03.01-.06.01c-.07,0-.13-.06-.13-.13,0-.06.04-.1.08-.12Z"/>
          <path class="cls-1" d="M69.55,49.31l.42-.21c.05-.03.08-.03.11-.03.09,0,.14.07.14.13v2.19c0,.08-.06.14-.14.14s-.14-.07-.14-.14v-1.97l-.27.13s-.03.01-.06.01c-.07,0-.13-.06-.13-.13,0-.06.04-.1.08-.12Z"/>
          <path class="cls-1" d="M71.82,49.81c0-.44.17-.75.62-.75s.63.3.63.75v.99c0,.43-.17.74-.63.74s-.62-.3-.62-.74v-.99ZM72.11,50.82c0,.26.07.45.33.45s.34-.19.34-.45v-1.03c0-.31-.1-.46-.34-.46s-.34.14-.34.46v1.03Z"/>
          <path class="cls-1" d="M74.63,49.81c0-.44.17-.75.62-.75s.63.3.63.75v.99c0,.43-.17.74-.63.74s-.62-.3-.62-.74v-.99ZM74.91,50.82c0,.26.07.45.33.45s.34-.19.34-.45v-1.03c0-.31-.1-.46-.34-.46s-.34.14-.34.46v1.03Z"/>
          <path class="cls-1" d="M77.36,49.31l.42-.21c.05-.03.08-.03.11-.03.09,0,.14.07.14.13v2.19c0,.08-.06.14-.14.14s-.14-.07-.14-.14v-1.97l-.27.13s-.03.01-.06.01c-.07,0-.13-.06-.13-.13,0-.06.04-.1.08-.12Z"/>
          <path class="cls-1" d="M79.56,49.31l.42-.21c.05-.03.08-.03.11-.03.09,0,.14.07.14.13v2.19c0,.08-.06.14-.14.14s-.14-.07-.14-.14v-1.97l-.27.13s-.03.01-.06.01c-.07,0-.13-.06-.13-.13,0-.06.04-.1.08-.12Z"/>
          <path class="cls-1" d="M81.84,49.81c0-.44.17-.75.62-.75s.63.3.63.75v.99c0,.43-.17.74-.63.74s-.62-.3-.62-.74v-.99ZM82.13,50.82c0,.26.07.45.33.45s.34-.19.34-.45v-1.03c0-.31-.1-.46-.34-.46s-.34.14-.34.46v1.03Z"/>
          <path class="cls-1" d="M84.57,49.31l.42-.21c.05-.03.08-.03.11-.03.09,0,.14.07.14.13v2.19c0,.08-.06.14-.14.14s-.14-.07-.14-.14v-1.97l-.27.13s-.03.01-.06.01c-.07,0-.13-.06-.13-.13,0-.06.04-.1.08-.12Z"/>
          <path class="cls-1" d="M86.85,49.81c0-.44.17-.75.62-.75s.63.3.63.75v.99c0,.43-.17.74-.63.74s-.62-.3-.62-.74v-.99ZM87.13,50.82c0,.26.07.45.33.45s.34-.19.34-.45v-1.03c0-.31-.1-.46-.34-.46s-.34.14-.34.46v1.03Z"/>
          <path class="cls-1" d="M89.58,49.31l.42-.21c.05-.03.08-.03.11-.03.09,0,.14.07.14.13v2.19c0,.08-.06.14-.14.14s-.14-.07-.14-.14v-1.97l-.27.13s-.03.01-.06.01c-.07,0-.13-.06-.13-.13,0-.06.04-.1.08-.12Z"/>
        </g>
        <g>
          <path class="cls-4" d="M9.16,53.49c0-.44.17-.75.62-.75s.63.3.63.75v.99c0,.43-.17.74-.63.74s-.62-.3-.62-.74v-.99ZM9.45,54.49c0,.26.07.45.33.45s.34-.19.34-.45v-1.03c0-.31-.1-.46-.34-.46s-.34.14-.34.46v1.03Z"/>
          <path class="cls-4" d="M11.9,52.98l.42-.21c.05-.03.08-.03.11-.03.09,0,.14.07.14.13v2.19c0,.08-.06.14-.14.14s-.14-.07-.14-.14v-1.97l-.27.13s-.03.01-.06.01c-.07,0-.13-.06-.13-.13,0-.06.04-.1.08-.12Z"/>
          <path class="cls-4" d="M14.1,52.98l.42-.21c.05-.03.08-.03.11-.03.09,0,.14.07.14.13v2.19c0,.08-.06.14-.14.14s-.14-.07-.14-.14v-1.97l-.27.13s-.03.01-.06.01c-.07,0-.13-.06-.13-.13,0-.06.04-.1.08-.12Z"/>
          <path class="cls-4" d="M16.37,53.49c0-.44.17-.75.62-.75s.63.3.63.75v.99c0,.43-.17.74-.63.74s-.62-.3-.62-.74v-.99ZM16.66,54.49c0,.26.07.45.33.45s.34-.19.34-.45v-1.03c0-.31-.1-.46-.34-.46s-.34.14-.34.46v1.03Z"/>
          <path class="cls-4" d="M19.11,52.98l.42-.21c.05-.03.08-.03.11-.03.09,0,.14.07.14.13v2.19c0,.08-.06.14-.14.14s-.14-.07-.14-.14v-1.97l-.27.13s-.03.01-.06.01c-.07,0-.13-.06-.13-.13,0-.06.04-.1.08-.12Z"/>
          <path class="cls-4" d="M21.31,52.98l.42-.21c.05-.03.08-.03.11-.03.09,0,.14.07.14.13v2.19c0,.08-.06.14-.14.14s-.14-.07-.14-.14v-1.97l-.27.13s-.03.01-.06.01c-.07,0-.13-.06-.13-.13,0-.06.04-.1.08-.12Z"/>
          <path class="cls-4" d="M23.59,53.49c0-.44.17-.75.62-.75s.63.3.63.75v.99c0,.43-.17.74-.63.74s-.62-.3-.62-.74v-.99ZM23.87,54.49c0,.26.07.45.33.45s.34-.19.34-.45v-1.03c0-.31-.1-.46-.34-.46s-.34.14-.34.46v1.03Z"/>
          <path class="cls-4" d="M26.39,53.49c0-.44.17-.75.62-.75s.63.3.63.75v.99c0,.43-.17.74-.63.74s-.62-.3-.62-.74v-.99ZM26.68,54.49c0,.26.07.45.33.45s.34-.19.34-.45v-1.03c0-.31-.1-.46-.34-.46s-.34.14-.34.46v1.03Z"/>
          <path class="cls-4" d="M29.2,53.49c0-.44.17-.75.62-.75s.63.3.63.75v.99c0,.43-.17.74-.63.74s-.62-.3-.62-.74v-.99ZM29.48,54.49c0,.26.07.45.33.45s.34-.19.34-.45v-1.03c0-.31-.1-.46-.34-.46s-.34.14-.34.46v1.03Z"/>
          <path class="cls-4" d="M31.93,52.98l.42-.21c.05-.03.08-.03.11-.03.09,0,.14.07.14.13v2.19c0,.08-.06.14-.14.14s-.14-.07-.14-.14v-1.97l-.27.13s-.03.01-.06.01c-.07,0-.13-.06-.13-.13,0-.06.04-.1.08-.12Z"/>
          <path class="cls-4" d="M34.21,53.49c0-.44.17-.75.62-.75s.63.3.63.75v.99c0,.43-.17.74-.63.74s-.62-.3-.62-.74v-.99ZM34.49,54.49c0,.26.07.45.33.45s.34-.19.34-.45v-1.03c0-.31-.1-.46-.34-.46s-.34.14-.34.46v1.03Z"/>
          <path class="cls-4" d="M36.94,52.98l.42-.21c.05-.03.08-.03.11-.03.09,0,.14.07.14.13v2.19c0,.08-.06.14-.14.14s-.14-.07-.14-.14v-1.97l-.27.13s-.03.01-.06.01c-.07,0-.13-.06-.13-.13,0-.06.04-.1.08-.12Z"/>
        </g>
        <g>
          <path class="cls-4" d="M10.35,49.81c0-.44.17-.75.62-.75s.63.3.63.75v.99c0,.43-.17.74-.63.74s-.62-.3-.62-.74v-.99ZM10.64,50.82c0,.26.07.45.33.45s.34-.19.34-.45v-1.03c0-.31-.1-.46-.34-.46s-.34.14-.34.46v1.03Z"/>
          <path class="cls-4" d="M13.16,49.81c0-.44.17-.75.62-.75s.63.3.63.75v.99c0,.43-.17.74-.63.74s-.62-.3-.62-.74v-.99ZM13.44,50.82c0,.26.07.45.33.45s.34-.19.34-.45v-1.03c0-.31-.1-.46-.34-.46s-.34.14-.34.46v1.03Z"/>
          <path class="cls-4" d="M15.89,49.31l.42-.21c.05-.03.08-.03.11-.03.09,0,.14.07.14.13v2.19c0,.08-.06.14-.14.14s-.14-.07-.14-.14v-1.97l-.27.13s-.03.01-.06.01c-.07,0-.13-.06-.13-.13,0-.06.04-.1.08-.12Z"/>
          <path class="cls-4" d="M18.09,49.31l.42-.21c.05-.03.08-.03.11-.03.09,0,.14.07.14.13v2.19c0,.08-.06.14-.14.14s-.14-.07-.14-.14v-1.97l-.27.13s-.03.01-.06.01c-.07,0-.13-.06-.13-.13,0-.06.04-.1.08-.12Z"/>
          <path class="cls-4" d="M20.37,49.81c0-.44.17-.75.62-.75s.63.3.63.75v.99c0,.43-.17.74-.63.74s-.62-.3-.62-.74v-.99ZM20.65,50.82c0,.26.07.45.33.45s.34-.19.34-.45v-1.03c0-.31-.1-.46-.34-.46s-.34.14-.34.46v1.03Z"/>
          <path class="cls-4" d="M23.17,49.81c0-.44.17-.75.62-.75s.63.3.63.75v.99c0,.43-.17.74-.63.74s-.62-.3-.62-.74v-.99ZM23.46,50.82c0,.26.07.45.33.45s.34-.19.34-.45v-1.03c0-.31-.1-.46-.34-.46s-.34.14-.34.46v1.03Z"/>
          <path class="cls-4" d="M25.91,49.31l.42-.21c.05-.03.08-.03.11-.03.09,0,.14.07.14.13v2.19c0,.08-.06.14-.14.14s-.14-.07-.14-.14v-1.97l-.27.13s-.03.01-.06.01c-.07,0-.13-.06-.13-.13,0-.06.04-.1.08-.12Z"/>
          <path class="cls-4" d="M28.11,49.31l.42-.21c.05-.03.08-.03.11-.03.09,0,.14.07.14.13v2.19c0,.08-.06.14-.14.14s-.14-.07-.14-.14v-1.97l-.27.13s-.03.01-.06.01c-.07,0-.13-.06-.13-.13,0-.06.04-.1.08-.12Z"/>
          <path class="cls-4" d="M30.38,49.81c0-.44.17-.75.62-.75s.63.3.63.75v.99c0,.43-.17.74-.63.74s-.62-.3-.62-.74v-.99ZM30.67,50.82c0,.26.07.45.33.45s.34-.19.34-.45v-1.03c0-.31-.1-.46-.34-.46s-.34.14-.34.46v1.03Z"/>
          <path class="cls-4" d="M33.12,49.31l.42-.21c.05-.03.08-.03.11-.03.09,0,.14.07.14.13v2.19c0,.08-.06.14-.14.14s-.14-.07-.14-.14v-1.97l-.27.13s-.03.01-.06.01c-.07,0-.13-.06-.13-.13,0-.06.04-.1.08-.12Z"/>
          <path class="cls-4" d="M35.39,49.81c0-.44.17-.75.62-.75s.63.3.63.75v.99c0,.43-.17.74-.63.74s-.62-.3-.62-.74v-.99ZM35.68,50.82c0,.26.07.45.33.45s.34-.19.34-.45v-1.03c0-.31-.1-.46-.34-.46s-.34.14-.34.46v1.03Z"/>
        </g>
        <g>
          <path class="cls-1" d="M60.36,27.74l.42-.21c.05-.03.08-.03.11-.03.09,0,.14.07.14.13v2.19c0,.08-.06.14-.14.14s-.14-.07-.14-.14v-1.97l-.27.13s-.03.01-.06.01c-.07,0-.13-.06-.13-.13,0-.06.04-.1.08-.12Z"/>
          <path class="cls-1" d="M62.63,28.25c0-.44.17-.75.62-.75s.63.3.63.75v.99c0,.43-.17.74-.63.74s-.62-.3-.62-.74v-.99ZM62.92,29.25c0,.26.07.45.33.45s.34-.19.34-.45v-1.03c0-.31-.1-.46-.34-.46s-.34.14-.34.46v1.03Z"/>
          <path class="cls-1" d="M65.36,27.74l.42-.21c.05-.03.08-.03.11-.03.09,0,.14.07.14.13v2.19c0,.08-.06.14-.14.14s-.14-.07-.14-.14v-1.97l-.27.13s-.03.01-.06.01c-.07,0-.13-.06-.13-.13,0-.06.04-.1.08-.12Z"/>
          <path class="cls-1" d="M67.57,27.74l.42-.21c.05-.03.08-.03.11-.03.09,0,.14.07.14.13v2.19c0,.08-.06.14-.14.14s-.14-.07-.14-.14v-1.97l-.27.13s-.03.01-.06.01c-.07,0-.13-.06-.13-.13,0-.06.04-.1.08-.12Z"/>
          <path class="cls-1" d="M69.84,28.25c0-.44.17-.75.62-.75s.63.3.63.75v.99c0,.43-.17.74-.63.74s-.62-.3-.62-.74v-.99ZM70.13,29.25c0,.26.07.45.33.45s.34-.19.34-.45v-1.03c0-.31-.1-.46-.34-.46s-.34.14-.34.46v1.03Z"/>
          <path class="cls-1" d="M72.58,27.74l.42-.21c.05-.03.08-.03.11-.03.09,0,.14.07.14.13v2.19c0,.08-.06.14-.14.14s-.14-.07-.14-.14v-1.97l-.27.13s-.03.01-.06.01c-.07,0-.13-.06-.13-.13,0-.06.04-.1.08-.12Z"/>
          <path class="cls-1" d="M74.78,27.74l.42-.21c.05-.03.08-.03.11-.03.09,0,.14.07.14.13v2.19c0,.08-.06.14-.14.14s-.14-.07-.14-.14v-1.97l-.27.13s-.03.01-.06.01c-.07,0-.13-.06-.13-.13,0-.06.04-.1.08-.12Z"/>
          <path class="cls-1" d="M77.05,28.25c0-.44.17-.75.62-.75s.63.3.63.75v.99c0,.43-.17.74-.63.74s-.62-.3-.62-.74v-.99ZM77.34,29.25c0,.26.07.45.33.45s.34-.19.34-.45v-1.03c0-.31-.1-.46-.34-.46s-.34.14-.34.46v1.03Z"/>
          <path class="cls-1" d="M79.86,28.25c0-.44.17-.75.62-.75s.63.3.63.75v.99c0,.43-.17.74-.63.74s-.62-.3-.62-.74v-.99ZM80.15,29.25c0,.26.07.45.33.45s.34-.19.34-.45v-1.03c0-.31-.1-.46-.34-.46s-.34.14-.34.46v1.03Z"/>
          <path class="cls-1" d="M82.67,28.25c0-.44.17-.75.62-.75s.63.3.63.75v.99c0,.43-.17.74-.63.74s-.62-.3-.62-.74v-.99ZM82.95,29.25c0,.26.07.45.33.45s.34-.19.34-.45v-1.03c0-.31-.1-.46-.34-.46s-.34.14-.34.46v1.03Z"/>
          <path class="cls-1" d="M85.4,27.74l.42-.21c.05-.03.08-.03.11-.03.09,0,.14.07.14.13v2.19c0,.08-.06.14-.14.14s-.14-.07-.14-.14v-1.97l-.27.13s-.03.01-.06.01c-.07,0-.13-.06-.13-.13,0-.06.04-.1.08-.12Z"/>
          <path class="cls-1" d="M87.67,28.25c0-.44.17-.75.62-.75s.63.3.63.75v.99c0,.43-.17.74-.63.74s-.62-.3-.62-.74v-.99ZM87.96,29.25c0,.26.07.45.33.45s.34-.19.34-.45v-1.03c0-.31-.1-.46-.34-.46s-.34.14-.34.46v1.03Z"/>
        </g>
        <g>
          <path class="cls-1" d="M59.08,24.3c0-.44.17-.75.62-.75s.63.3.63.75v.99c0,.43-.17.74-.63.74s-.62-.3-.62-.74v-.99ZM59.36,25.31c0,.26.07.45.33.45s.34-.19.34-.45v-1.03c0-.31-.1-.46-.34-.46s-.34.14-.34.46v1.03Z"/>
          <path class="cls-1" d="M61.88,24.3c0-.44.17-.75.62-.75s.63.3.63.75v.99c0,.43-.17.74-.63.74s-.62-.3-.62-.74v-.99ZM62.17,25.31c0,.26.07.45.33.45s.34-.19.34-.45v-1.03c0-.31-.1-.46-.34-.46s-.34.14-.34.46v1.03Z"/>
          <path class="cls-1" d="M64.62,23.8l.42-.21c.05-.03.08-.03.11-.03.09,0,.14.07.14.13v2.19c0,.08-.06.14-.14.14s-.14-.07-.14-.14v-1.97l-.27.13s-.03.01-.06.01c-.07,0-.13-.06-.13-.13,0-.06.04-.1.08-.12Z"/>
          <path class="cls-1" d="M66.82,23.8l.42-.21c.05-.03.08-.03.11-.03.09,0,.14.07.14.13v2.19c0,.08-.06.14-.14.14s-.14-.07-.14-.14v-1.97l-.27.13s-.03.01-.06.01c-.07,0-.13-.06-.13-.13,0-.06.04-.1.08-.12Z"/>
          <path class="cls-1" d="M69.09,24.3c0-.44.17-.75.62-.75s.63.3.63.75v.99c0,.43-.17.74-.63.74s-.62-.3-.62-.74v-.99ZM69.38,25.31c0,.26.07.45.33.45s.34-.19.34-.45v-1.03c0-.31-.1-.46-.34-.46s-.34.14-.34.46v1.03Z"/>
          <path class="cls-1" d="M71.9,24.3c0-.44.17-.75.62-.75s.63.3.63.75v.99c0,.43-.17.74-.63.74s-.62-.3-.62-.74v-.99ZM72.19,25.31c0,.26.07.45.33.45s.34-.19.34-.45v-1.03c0-.31-.1-.46-.34-.46s-.34.14-.34.46v1.03Z"/>
          <path class="cls-1" d="M74.63,23.8l.42-.21c.05-.03.08-.03.11-.03.09,0,.14.07.14.13v2.19c0,.08-.06.14-.14.14s-.14-.07-.14-.14v-1.97l-.27.13s-.03.01-.06.01c-.07,0-.13-.06-.13-.13,0-.06.04-.1.08-.12Z"/>
          <path class="cls-1" d="M76.84,23.8l.42-.21c.05-.03.08-.03.11-.03.09,0,.14.07.14.13v2.19c0,.08-.06.14-.14.14s-.14-.07-.14-.14v-1.97l-.27.13s-.03.01-.06.01c-.07,0-.13-.06-.13-.13,0-.06.04-.1.08-.12Z"/>
          <path class="cls-1" d="M79.11,24.3c0-.44.17-.75.62-.75s.63.3.63.75v.99c0,.43-.17.74-.63.74s-.62-.3-.62-.74v-.99ZM79.4,25.31c0,.26.07.45.33.45s.34-.19.34-.45v-1.03c0-.31-.1-.46-.34-.46s-.34.14-.34.46v1.03Z"/>
          <path class="cls-1" d="M81.84,23.8l.42-.21c.05-.03.08-.03.11-.03.09,0,.14.07.14.13v2.19c0,.08-.06.14-.14.14s-.14-.07-.14-.14v-1.97l-.27.13s-.03.01-.06.01c-.07,0-.13-.06-.13-.13,0-.06.04-.1.08-.12Z"/>
          <path class="cls-1" d="M84.12,24.3c0-.44.17-.75.62-.75s.63.3.63.75v.99c0,.43-.17.74-.63.74s-.62-.3-.62-.74v-.99ZM84.41,25.31c0,.26.07.45.33.45s.34-.19.34-.45v-1.03c0-.31-.1-.46-.34-.46s-.34.14-.34.46v1.03Z"/>
          <path class="cls-1" d="M86.85,23.8l.42-.21c.05-.03.08-.03.11-.03.09,0,.14.07.14.13v2.19c0,.08-.06.14-.14.14s-.14-.07-.14-.14v-1.97l-.27.13s-.03.01-.06.01c-.07,0-.13-.06-.13-.13,0-.06.04-.1.08-.12Z"/>
        </g>
        <g>
          <path class="cls-4" d="M23.79,27.74l.42-.21c.05-.03.08-.03.11-.03.09,0,.14.07.14.13v2.19c0,.08-.06.14-.14.14s-.14-.07-.14-.14v-1.97l-.27.13s-.03.01-.06.01c-.07,0-.13-.06-.13-.13,0-.06.04-.1.08-.12Z"/>
          <path class="cls-4" d="M26.06,28.25c0-.44.17-.75.62-.75s.63.3.63.75v.99c0,.43-.17.74-.63.74s-.62-.3-.62-.74v-.99ZM26.35,29.25c0,.26.07.45.33.45s.34-.19.34-.45v-1.03c0-.31-.1-.46-.34-.46s-.34.14-.34.46v1.03Z"/>
          <path class="cls-4" d="M28.8,27.74l.42-.21c.05-.03.08-.03.11-.03.09,0,.14.07.14.13v2.19c0,.08-.06.14-.14.14s-.14-.07-.14-.14v-1.97l-.27.13s-.03.01-.06.01c-.07,0-.13-.06-.13-.13,0-.06.04-.1.08-.12Z"/>
          <path class="cls-4" d="M31,27.74l.42-.21c.05-.03.08-.03.11-.03.09,0,.14.07.14.13v2.19c0,.08-.06.14-.14.14s-.14-.07-.14-.14v-1.97l-.27.13s-.03.01-.06.01c-.07,0-.13-.06-.13-.13,0-.06.04-.1.08-.12Z"/>
          <path class="cls-4" d="M33.27,28.25c0-.44.17-.75.62-.75s.63.3.63.75v.99c0,.43-.17.74-.63.74s-.62-.3-.62-.74v-.99ZM33.56,29.25c0,.26.07.45.33.45s.34-.19.34-.45v-1.03c0-.31-.1-.46-.34-.46s-.34.14-.34.46v1.03Z"/>
          <path class="cls-4" d="M36.01,27.74l.42-.21c.05-.03.08-.03.11-.03.09,0,.14.07.14.13v2.19c0,.08-.06.14-.14.14s-.14-.07-.14-.14v-1.97l-.27.13s-.03.01-.06.01c-.07,0-.13-.06-.13-.13,0-.06.04-.1.08-.12Z"/>
          <path class="cls-4" d="M38.21,27.74l.42-.21c.05-.03.08-.03.11-.03.09,0,.14.07.14.13v2.19c0,.08-.06.14-.14.14s-.14-.07-.14-.14v-1.97l-.27.13s-.03.01-.06.01c-.07,0-.13-.06-.13-.13,0-.06.04-.1.08-.12Z"/>
        </g>
        <g>
          <path class="cls-4" d="M24.13,24.3c0-.44.17-.75.62-.75s.63.3.63.75v.99c0,.43-.17.74-.63.74s-.62-.3-.62-.74v-.99ZM24.42,25.31c0,.26.07.45.33.45s.34-.19.34-.45v-1.03c0-.31-.1-.46-.34-.46s-.34.14-.34.46v1.03Z"/>
          <path class="cls-4" d="M26.94,24.3c0-.44.17-.75.62-.75s.63.3.63.75v.99c0,.43-.17.74-.63.74s-.62-.3-.62-.74v-.99ZM27.23,25.31c0,.26.07.45.33.45s.34-.19.34-.45v-1.03c0-.31-.1-.46-.34-.46s-.34.14-.34.46v1.03Z"/>
          <path class="cls-4" d="M29.67,23.8l.42-.21c.05-.03.08-.03.11-.03.09,0,.14.07.14.13v2.19c0,.08-.06.14-.14.14s-.14-.07-.14-.14v-1.97l-.27.13s-.03.01-.06.01c-.07,0-.13-.06-.13-.13,0-.06.04-.1.08-.12Z"/>
          <path class="cls-4" d="M31.87,23.8l.42-.21c.05-.03.08-.03.11-.03.09,0,.14.07.14.13v2.19c0,.08-.06.14-.14.14s-.14-.07-.14-.14v-1.97l-.27.13s-.03.01-.06.01c-.07,0-.13-.06-.13-.13,0-.06.04-.1.08-.12Z"/>
          <path class="cls-4" d="M34.15,24.3c0-.44.17-.75.62-.75s.63.3.63.75v.99c0,.43-.17.74-.63.74s-.62-.3-.62-.74v-.99ZM34.44,25.31c0,.26.07.45.33.45s.34-.19.34-.45v-1.03c0-.31-.1-.46-.34-.46s-.34.14-.34.46v1.03Z"/>
          <path class="cls-4" d="M36.96,24.3c0-.44.17-.75.62-.75s.63.3.63.75v.99c0,.43-.17.74-.63.74s-.62-.3-.62-.74v-.99ZM37.24,25.31c0,.26.07.45.33.45s.34-.19.34-.45v-1.03c0-.31-.1-.46-.34-.46s-.34.14-.34.46v1.03Z"/>
          <path class="cls-4" d="M39.69,23.8l.42-.21c.05-.03.08-.03.11-.03.09,0,.14.07.14.13v2.19c0,.08-.06.14-.14.14s-.14-.07-.14-.14v-1.97l-.27.13s-.03.01-.06.01c-.07,0-.13-.06-.13-.13,0-.06.04-.1.08-.12Z"/>
        </g>
        <g>
          <path class="cls-1" d="M58.85,2.5c0-.44.17-.75.62-.75s.63.3.63.75v.99c0,.43-.17.74-.63.74s-.62-.3-.62-.74v-.99ZM59.14,3.51c0,.26.07.45.33.45s.34-.19.34-.45v-1.03c0-.31-.1-.46-.34-.46s-.34.14-.34.46v1.03Z"/>
          <path class="cls-1" d="M61.59,2l.42-.21c.05-.03.08-.03.11-.03.09,0,.14.07.14.13v2.19c0,.08-.06.14-.14.14s-.14-.07-.14-.14v-1.97l-.27.13s-.03.01-.06.01c-.07,0-.13-.06-.13-.13,0-.06.04-.1.08-.12Z"/>
          <path class="cls-1" d="M63.79,2l.42-.21c.05-.03.08-.03.11-.03.09,0,.14.07.14.13v2.19c0,.08-.06.14-.14.14s-.14-.07-.14-.14v-1.97l-.27.13s-.03.01-.06.01c-.07,0-.13-.06-.13-.13,0-.06.04-.1.08-.12Z"/>
          <path class="cls-1" d="M66.06,2.5c0-.44.17-.75.62-.75s.63.3.63.75v.99c0,.43-.17.74-.63.74s-.62-.3-.62-.74v-.99ZM66.35,3.51c0,.26.07.45.33.45s.34-.19.34-.45v-1.03c0-.31-.1-.46-.34-.46s-.34.14-.34.46v1.03Z"/>
          <path class="cls-1" d="M68.8,2l.42-.21c.05-.03.08-.03.11-.03.09,0,.14.07.14.13v2.19c0,.08-.06.14-.14.14s-.14-.07-.14-.14v-1.97l-.27.13s-.03.01-.06.01c-.07,0-.13-.06-.13-.13,0-.06.04-.1.08-.12Z"/>
          <path class="cls-1" d="M71,2l.42-.21c.05-.03.08-.03.11-.03.09,0,.14.07.14.13v2.19c0,.08-.06.14-.14.14s-.14-.07-.14-.14v-1.97l-.27.13s-.03.01-.06.01c-.07,0-.13-.06-.13-.13,0-.06.04-.1.08-.12Z"/>
          <path class="cls-1" d="M73.28,2.5c0-.44.17-.75.62-.75s.63.3.63.75v.99c0,.43-.17.74-.63.74s-.62-.3-.62-.74v-.99ZM73.56,3.51c0,.26.07.45.33.45s.34-.19.34-.45v-1.03c0-.31-.1-.46-.34-.46s-.34.14-.34.46v1.03Z"/>
          <path class="cls-1" d="M76.08,2.5c0-.44.17-.75.62-.75s.63.3.63.75v.99c0,.43-.17.74-.63.74s-.62-.3-.62-.74v-.99ZM76.37,3.51c0,.26.07.45.33.45s.34-.19.34-.45v-1.03c0-.31-.1-.46-.34-.46s-.34.14-.34.46v1.03Z"/>
          <path class="cls-1" d="M78.89,2.5c0-.44.17-.75.62-.75s.63.3.63.75v.99c0,.43-.17.74-.63.74s-.62-.3-.62-.74v-.99ZM79.17,3.51c0,.26.07.45.33.45s.34-.19.34-.45v-1.03c0-.31-.1-.46-.34-.46s-.34.14-.34.46v1.03Z"/>
          <path class="cls-1" d="M81.62,2l.42-.21c.05-.03.08-.03.11-.03.09,0,.14.07.14.13v2.19c0,.08-.06.14-.14.14s-.14-.07-.14-.14v-1.97l-.27.13s-.03.01-.06.01c-.07,0-.13-.06-.13-.13,0-.06.04-.1.08-.12Z"/>
          <path class="cls-1" d="M83.9,2.5c0-.44.17-.75.62-.75s.63.3.63.75v.99c0,.43-.17.74-.63.74s-.62-.3-.62-.74v-.99ZM84.18,3.51c0,.26.07.45.33.45s.34-.19.34-.45v-1.03c0-.31-.1-.46-.34-.46s-.34.14-.34.46v1.03Z"/>
          <path class="cls-1" d="M86.63,2l.42-.21c.05-.03.08-.03.11-.03.09,0,.14.07.14.13v2.19c0,.08-.06.14-.14.14s-.14-.07-.14-.14v-1.97l-.27.13s-.03.01-.06.01c-.07,0-.13-.06-.13-.13,0-.06.04-.1.08-.12Z"/>
          <path class="cls-1" d="M88.83,2l.42-.21c.05-.03.08-.03.11-.03.09,0,.14.07.14.13v2.19c0,.08-.06.14-.14.14s-.14-.07-.14-.14v-1.97l-.27.13s-.03.01-.06.01c-.07,0-.13-.06-.13-.13,0-.06.04-.1.08-.12Z"/>
        </g>
        <g>
          <path class="cls-1" d="M61.47,6.18c0-.44.17-.75.62-.75s.63.3.63.75v.99c0,.43-.17.74-.63.74s-.62-.3-.62-.74v-.99ZM61.75,7.18c0,.26.07.45.33.45s.34-.19.34-.45v-1.03c0-.31-.1-.46-.34-.46s-.34.14-.34.46v1.03Z"/>
          <path class="cls-1" d="M64.27,6.18c0-.44.17-.75.62-.75s.63.3.63.75v.99c0,.43-.17.74-.63.74s-.62-.3-.62-.74v-.99ZM64.56,7.18c0,.26.07.45.33.45s.34-.19.34-.45v-1.03c0-.31-.1-.46-.34-.46s-.34.14-.34.46v1.03Z"/>
          <path class="cls-1" d="M67.01,5.67l.42-.21c.05-.03.08-.03.11-.03.09,0,.14.07.14.13v2.19c0,.08-.06.14-.14.14s-.14-.07-.14-.14v-1.97l-.27.13s-.03.01-.06.01c-.07,0-.13-.06-.13-.13,0-.06.04-.1.08-.12Z"/>
          <path class="cls-1" d="M69.21,5.67l.42-.21c.05-.03.08-.03.11-.03.09,0,.14.07.14.13v2.19c0,.08-.06.14-.14.14s-.14-.07-.14-.14v-1.97l-.27.13s-.03.01-.06.01c-.07,0-.13-.06-.13-.13,0-.06.04-.1.08-.12Z"/>
          <path class="cls-1" d="M71.48,6.18c0-.44.17-.75.62-.75s.63.3.63.75v.99c0,.43-.17.74-.63.74s-.62-.3-.62-.74v-.99ZM71.77,7.18c0,.26.07.45.33.45s.34-.19.34-.45v-1.03c0-.31-.1-.46-.34-.46s-.34.14-.34.46v1.03Z"/>
          <path class="cls-1" d="M74.29,6.18c0-.44.17-.75.62-.75s.63.3.63.75v.99c0,.43-.17.74-.63.74s-.62-.3-.62-.74v-.99ZM74.58,7.18c0,.26.07.45.33.45s.34-.19.34-.45v-1.03c0-.31-.1-.46-.34-.46s-.34.14-.34.46v1.03Z"/>
          <path class="cls-1" d="M77.02,5.67l.42-.21c.05-.03.08-.03.11-.03.09,0,.14.07.14.13v2.19c0,.08-.06.14-.14.14s-.14-.07-.14-.14v-1.97l-.27.13s-.03.01-.06.01c-.07,0-.13-.06-.13-.13,0-.06.04-.1.08-.12Z"/>
          <path class="cls-1" d="M79.23,5.67l.42-.21c.05-.03.08-.03.11-.03.09,0,.14.07.14.13v2.19c0,.08-.06.14-.14.14s-.14-.07-.14-.14v-1.97l-.27.13s-.03.01-.06.01c-.07,0-.13-.06-.13-.13,0-.06.04-.1.08-.12Z"/>
          <path class="cls-1" d="M81.5,6.18c0-.44.17-.75.62-.75s.63.3.63.75v.99c0,.43-.17.74-.63.74s-.62-.3-.62-.74v-.99ZM81.79,7.18c0,.26.07.45.33.45s.34-.19.34-.45v-1.03c0-.31-.1-.46-.34-.46s-.34.14-.34.46v1.03Z"/>
          <path class="cls-1" d="M84.23,5.67l.42-.21c.05-.03.08-.03.11-.03.09,0,.14.07.14.13v2.19c0,.08-.06.14-.14.14s-.14-.07-.14-.14v-1.97l-.27.13s-.03.01-.06.01c-.07,0-.13-.06-.13-.13,0-.06.04-.1.08-.12Z"/>
          <path class="cls-1" d="M86.51,6.18c0-.44.17-.75.62-.75s.63.3.63.75v.99c0,.43-.17.74-.63.74s-.62-.3-.62-.74v-.99ZM86.8,7.18c0,.26.07.45.33.45s.34-.19.34-.45v-1.03c0-.31-.1-.46-.34-.46s-.34.14-.34.46v1.03Z"/>
        </g>
        <g>
          <path class="cls-4" d="M1.83,34.6l.42-.21c.05-.03.08-.03.11-.03.09,0,.14.07.14.13v2.19c0,.08-.06.14-.14.14s-.14-.07-.14-.14v-1.97l-.27.13s-.03.01-.06.01c-.07,0-.13-.06-.13-.13,0-.06.04-.1.08-.12Z"/>
          <path class="cls-4" d="M4.1,35.1c0-.44.17-.75.62-.75s.63.3.63.75v.99c0,.43-.17.74-.63.74s-.62-.3-.62-.74v-.99ZM4.39,36.1c0,.26.07.45.33.45s.34-.19.34-.45v-1.03c0-.31-.1-.46-.34-.46s-.34.14-.34.46v1.03Z"/>
          <path class="cls-4" d="M6.91,35.1c0-.44.17-.75.62-.75s.63.3.63.75v.99c0,.43-.17.74-.63.74s-.62-.3-.62-.74v-.99ZM7.2,36.1c0,.26.07.45.33.45s.34-.19.34-.45v-1.03c0-.31-.1-.46-.34-.46s-.34.14-.34.46v1.03Z"/>
          <path class="cls-4" d="M1.83,38.41l.42-.21c.05-.03.08-.03.11-.03.09,0,.14.07.14.13v2.19c0,.08-.06.14-.14.14s-.14-.07-.14-.14v-1.97l-.27.13s-.03.01-.06.01c-.07,0-.13-.06-.13-.13,0-.06.04-.1.08-.12Z"/>
          <path class="cls-4" d="M4.1,38.91c0-.44.17-.75.62-.75s.63.3.63.75v.99c0,.43-.17.74-.63.74s-.62-.3-.62-.74v-.99ZM4.39,39.92c0,.26.07.45.33.45s.34-.19.34-.45v-1.03c0-.31-.1-.46-.34-.46s-.34.14-.34.46v1.03Z"/>
          <path class="cls-4" d="M6.84,38.41l.42-.21c.05-.03.08-.03.11-.03.09,0,.14.07.14.13v2.19c0,.08-.06.14-.14.14s-.14-.07-.14-.14v-1.97l-.27.13s-.03.01-.06.01c-.07,0-.13-.06-.13-.13,0-.06.04-.1.08-.12Z"/>
          <path class="cls-4" d="M1.83,42.22l.42-.21c.05-.03.08-.03.11-.03.09,0,.14.07.14.13v2.19c0,.08-.06.14-.14.14s-.14-.07-.14-.14v-1.97l-.27.13s-.03.01-.06.01c-.07,0-.13-.06-.13-.13,0-.06.04-.1.08-.12Z"/>
          <path class="cls-4" d="M4.03,42.22l.42-.21c.05-.03.08-.03.11-.03.09,0,.14.07.14.13v2.19c0,.08-.06.14-.14.14s-.14-.07-.14-.14v-1.97l-.27.13s-.03.01-.06.01c-.07,0-.13-.06-.13-.13,0-.06.04-.1.08-.12Z"/>
          <path class="cls-4" d="M6.31,42.73c0-.44.17-.75.62-.75s.63.3.63.75v.99c0,.43-.17.74-.63.74s-.62-.3-.62-.74v-.99ZM6.59,43.73c0,.26.07.45.33.45s.34-.19.34-.45v-1.03c0-.31-.1-.46-.34-.46s-.34.14-.34.46v1.03Z"/>
          <path class="cls-4" d="M1.9,46.54c0-.44.17-.75.62-.75s.63.3.63.75v.99c0,.43-.17.74-.63.74s-.62-.3-.62-.74v-.99ZM2.19,47.55c0,.26.07.45.33.45s.34-.19.34-.45v-1.03c0-.31-.1-.46-.34-.46s-.34.14-.34.46v1.03Z"/>
          <path class="cls-4" d="M4.63,46.04l.42-.21c.05-.03.08-.03.11-.03.09,0,.14.07.14.13v2.19c0,.08-.06.14-.14.14s-.14-.07-.14-.14v-1.97l-.27.13s-.03.01-.06.01c-.07,0-.13-.06-.13-.13,0-.06.04-.1.08-.12Z"/>
        </g>
        <g>
          <path class="cls-4" d="M1.9,31.35c0-.44.17-.75.62-.75s.63.3.63.75v.99c0,.43-.17.74-.63.74s-.62-.3-.62-.74v-.99ZM2.19,32.35c0,.26.07.45.33.45s.34-.19.34-.45v-1.03c0-.31-.1-.46-.34-.46s-.34.14-.34.46v1.03Z"/>
          <path class="cls-4" d="M4.63,30.84l.42-.21c.05-.03.08-.03.11-.03.09,0,.14.07.14.13v2.19c0,.08-.06.14-.14.14s-.14-.07-.14-.14v-1.97l-.27.13s-.03.01-.06.01c-.07,0-.13-.06-.13-.13,0-.06.04-.1.08-.12Z"/>
        </g>
        <g>
          <path class="cls-4" d="M1.83,11.28l.42-.21c.05-.03.08-.03.11-.03.09,0,.14.07.14.13v2.19c0,.08-.06.14-.14.14s-.14-.07-.14-.14v-1.97l-.27.13s-.03.01-.06.01c-.07,0-.13-.06-.13-.13,0-.06.04-.1.08-.12Z"/>
          <path class="cls-4" d="M4.1,11.79c0-.44.17-.75.62-.75s.63.3.63.75v.99c0,.43-.17.74-.63.74s-.62-.3-.62-.74v-.99ZM4.39,12.79c0,.26.07.45.33.45s.34-.19.34-.45v-1.03c0-.31-.1-.46-.34-.46s-.34.14-.34.46v1.03Z"/>
          <path class="cls-4" d="M6.91,11.79c0-.44.17-.75.62-.75s.63.3.63.75v.99c0,.43-.17.74-.63.74s-.62-.3-.62-.74v-.99ZM7.2,12.79c0,.26.07.45.33.45s.34-.19.34-.45v-1.03c0-.31-.1-.46-.34-.46s-.34.14-.34.46v1.03Z"/>
          <path class="cls-4" d="M1.83,15.1l.42-.21c.05-.03.08-.03.11-.03.09,0,.14.07.14.13v2.19c0,.08-.06.14-.14.14s-.14-.07-.14-.14v-1.97l-.27.13s-.03.01-.06.01c-.07,0-.13-.06-.13-.13,0-.06.04-.1.08-.12Z"/>
          <path class="cls-4" d="M4.1,15.6c0-.44.17-.75.62-.75s.63.3.63.75v.99c0,.43-.17.74-.63.74s-.62-.3-.62-.74v-.99ZM4.39,16.61c0,.26.07.45.33.45s.34-.19.34-.45v-1.03c0-.31-.1-.46-.34-.46s-.34.14-.34.46v1.03Z"/>
          <path class="cls-4" d="M6.84,15.1l.42-.21c.05-.03.08-.03.11-.03.09,0,.14.07.14.13v2.19c0,.08-.06.14-.14.14s-.14-.07-.14-.14v-1.97l-.27.13s-.03.01-.06.01c-.07,0-.13-.06-.13-.13,0-.06.04-.1.08-.12Z"/>
          <path class="cls-4" d="M1.83,18.91l.42-.21c.05-.03.08-.03.11-.03.09,0,.14.07.14.13v2.19c0,.08-.06.14-.14.14s-.14-.07-.14-.14v-1.97l-.27.13s-.03.01-.06.01c-.07,0-.13-.06-.13-.13,0-.06.04-.1.08-.12Z"/>
          <path class="cls-4" d="M4.03,18.91l.42-.21c.05-.03.08-.03.11-.03.09,0,.14.07.14.13v2.19c0,.08-.06.14-.14.14s-.14-.07-.14-.14v-1.97l-.27.13s-.03.01-.06.01c-.07,0-.13-.06-.13-.13,0-.06.04-.1.08-.12Z"/>
          <path class="cls-4" d="M6.31,19.42c0-.44.17-.75.62-.75s.63.3.63.75v.99c0,.43-.17.74-.63.74s-.62-.3-.62-.74v-.99ZM6.59,20.42c0,.26.07.45.33.45s.34-.19.34-.45v-1.03c0-.31-.1-.46-.34-.46s-.34.14-.34.46v1.03Z"/>
          <path class="cls-4" d="M1.9,23.23c0-.44.17-.75.62-.75s.63.3.63.75v.99c0,.43-.17.74-.63.74s-.62-.3-.62-.74v-.99ZM2.19,24.23c0,.26.07.45.33.45s.34-.19.34-.45v-1.03c0-.31-.1-.46-.34-.46s-.34.14-.34.46v1.03Z"/>
          <path class="cls-4" d="M4.63,22.73l.42-.21c.05-.03.08-.03.11-.03.09,0,.14.07.14.13v2.19c0,.08-.06.14-.14.14s-.14-.07-.14-.14v-1.97l-.27.13s-.03.01-.06.01c-.07,0-.13-.06-.13-.13,0-.06.04-.1.08-.12Z"/>
        </g>
        <g>
          <path class="cls-4" d="M1.9,8.03c0-.44.17-.75.62-.75s.63.3.63.75v.99c0,.43-.17.74-.63.74s-.62-.3-.62-.74v-.99ZM2.19,9.04c0,.26.07.45.33.45s.34-.19.34-.45v-1.03c0-.31-.1-.46-.34-.46s-.34.14-.34.46v1.03Z"/>
          <path class="cls-4" d="M4.63,7.53l.42-.21c.05-.03.08-.03.11-.03.09,0,.14.07.14.13v2.19c0,.08-.06.14-.14.14s-.14-.07-.14-.14v-1.97l-.27.13s-.03.01-.06.01c-.07,0-.13-.06-.13-.13,0-.06.04-.1.08-.12Z"/>
        </g>
        <g>
          <path class="cls-1" d="M53.32,34.6l.42-.21c.05-.03.08-.03.11-.03.09,0,.14.07.14.13v2.19c0,.08-.06.14-.14.14s-.14-.07-.14-.14v-1.97l-.27.13s-.03.01-.06.01c-.07,0-.13-.06-.13-.13,0-.06.04-.1.08-.12Z"/>
          <path class="cls-1" d="M55.59,35.1c0-.44.17-.75.62-.75s.63.3.63.75v.99c0,.43-.17.74-.63.74s-.62-.3-.62-.74v-.99ZM55.88,36.1c0,.26.07.45.33.45s.34-.19.34-.45v-1.03c0-.31-.1-.46-.34-.46s-.34.14-.34.46v1.03Z"/>
          <path class="cls-1" d="M58.4,35.1c0-.44.17-.75.62-.75s.63.3.63.75v.99c0,.43-.17.74-.63.74s-.62-.3-.62-.74v-.99ZM58.68,36.1c0,.26.07.45.33.45s.34-.19.34-.45v-1.03c0-.31-.1-.46-.34-.46s-.34.14-.34.46v1.03Z"/>
          <path class="cls-1" d="M53.32,38.41l.42-.21c.05-.03.08-.03.11-.03.09,0,.14.07.14.13v2.19c0,.08-.06.14-.14.14s-.14-.07-.14-.14v-1.97l-.27.13s-.03.01-.06.01c-.07,0-.13-.06-.13-.13,0-.06.04-.1.08-.12Z"/>
          <path class="cls-1" d="M55.59,38.91c0-.44.17-.75.62-.75s.63.3.63.75v.99c0,.43-.17.74-.63.74s-.62-.3-.62-.74v-.99ZM55.88,39.92c0,.26.07.45.33.45s.34-.19.34-.45v-1.03c0-.31-.1-.46-.34-.46s-.34.14-.34.46v1.03Z"/>
          <path class="cls-1" d="M58.32,38.41l.42-.21c.05-.03.08-.03.11-.03.09,0,.14.07.14.13v2.19c0,.08-.06.14-.14.14s-.14-.07-.14-.14v-1.97l-.27.13s-.03.01-.06.01c-.07,0-.13-.06-.13-.13,0-.06.04-.1.08-.12Z"/>
          <path class="cls-1" d="M53.32,42.22l.42-.21c.05-.03.08-.03.11-.03.09,0,.14.07.14.13v2.19c0,.08-.06.14-.14.14s-.14-.07-.14-.14v-1.97l-.27.13s-.03.01-.06.01c-.07,0-.13-.06-.13-.13,0-.06.04-.1.08-.12Z"/>
          <path class="cls-1" d="M55.52,42.22l.42-.21c.05-.03.08-.03.11-.03.09,0,.14.07.14.13v2.19c0,.08-.06.14-.14.14s-.14-.07-.14-.14v-1.97l-.27.13s-.03.01-.06.01c-.07,0-.13-.06-.13-.13,0-.06.04-.1.08-.12Z"/>
          <path class="cls-1" d="M57.79,42.73c0-.44.17-.75.62-.75s.63.3.63.75v.99c0,.43-.17.74-.63.74s-.62-.3-.62-.74v-.99ZM58.08,43.73c0,.26.07.45.33.45s.34-.19.34-.45v-1.03c0-.31-.1-.46-.34-.46s-.34.14-.34.46v1.03Z"/>
          <path class="cls-1" d="M53.39,46.54c0-.44.17-.75.62-.75s.63.3.63.75v.99c0,.43-.17.74-.63.74s-.62-.3-.62-.74v-.99ZM53.67,47.55c0,.26.07.45.33.45s.34-.19.34-.45v-1.03c0-.31-.1-.46-.34-.46s-.34.14-.34.46v1.03Z"/>
          <path class="cls-1" d="M56.12,46.04l.42-.21c.05-.03.08-.03.11-.03.09,0,.14.07.14.13v2.19c0,.08-.06.14-.14.14s-.14-.07-.14-.14v-1.97l-.27.13s-.03.01-.06.01c-.07,0-.13-.06-.13-.13,0-.06.04-.1.08-.12Z"/>
        </g>
        <g>
          <path class="cls-1" d="M53.39,31.35c0-.44.17-.75.62-.75s.63.3.63.75v.99c0,.43-.17.74-.63.74s-.62-.3-.62-.74v-.99ZM53.67,32.35c0,.26.07.45.33.45s.34-.19.34-.45v-1.03c0-.31-.1-.46-.34-.46s-.34.14-.34.46v1.03Z"/>
          <path class="cls-1" d="M56.12,30.84l.42-.21c.05-.03.08-.03.11-.03.09,0,.14.07.14.13v2.19c0,.08-.06.14-.14.14s-.14-.07-.14-.14v-1.97l-.27.13s-.03.01-.06.01c-.07,0-.13-.06-.13-.13,0-.06.04-.1.08-.12Z"/>
        </g>
        <g>
          <path class="cls-4" d="M42.9,31.35c0-.44.17-.75.62-.75s.63.3.63.75v.99c0,.43-.17.74-.63.74s-.62-.3-.62-.74v-.99ZM43.18,32.35c0,.26.07.45.33.45s.34-.19.34-.45v-1.03c0-.31-.1-.46-.34-.46s-.34.14-.34.46v1.03Z"/>
          <path class="cls-4" d="M45.63,30.84l.42-.21c.05-.03.08-.03.11-.03.09,0,.14.07.14.13v2.19c0,.08-.06.14-.14.14s-.14-.07-.14-.14v-1.97l-.27.13s-.03.01-.06.01c-.07,0-.13-.06-.13-.13,0-.06.04-.1.08-.12Z"/>
        </g>
        <g>
          <path class="cls-4" d="M40.25,34.14l.42-.21c.05-.03.08-.03.11-.03.09,0,.14.07.14.13v2.19c0,.08-.06.14-.14.14s-.14-.07-.14-.14v-1.97l-.27.13s-.03.01-.06.01c-.07,0-.13-.06-.13-.13,0-.06.04-.1.08-.12Z"/>
          <path class="cls-4" d="M42.53,34.65c0-.44.17-.75.62-.75s.63.3.63.75v.99c0,.43-.17.74-.63.74s-.62-.3-.62-.74v-.99ZM42.81,35.65c0,.26.07.45.33.45s.34-.19.34-.45v-1.03c0-.31-.1-.46-.34-.46s-.34.14-.34.46v1.03Z"/>
          <path class="cls-4" d="M45.33,34.65c0-.44.17-.75.62-.75s.63.3.63.75v.99c0,.43-.17.74-.63.74s-.62-.3-.62-.74v-.99ZM45.62,35.65c0,.26.07.45.33.45s.34-.19.34-.45v-1.03c0-.31-.1-.46-.34-.46s-.34.14-.34.46v1.03Z"/>
          <path class="cls-4" d="M40.86,37.95l.42-.21c.05-.03.08-.03.11-.03.09,0,.14.07.14.13v2.19c0,.08-.06.14-.14.14s-.14-.07-.14-.14v-1.97l-.27.13s-.03.01-.06.01c-.07,0-.13-.06-.13-.13,0-.06.04-.1.08-.12Z"/>
          <path class="cls-4" d="M43.13,38.46c0-.44.17-.75.62-.75s.63.3.63.75v.99c0,.43-.17.74-.63.74s-.62-.3-.62-.74v-.99ZM43.42,39.46c0,.26.07.45.33.45s.34-.19.34-.45v-1.03c0-.31-.1-.46-.34-.46s-.34.14-.34.46v1.03Z"/>
          <path class="cls-4" d="M45.86,37.95l.42-.21c.05-.03.08-.03.11-.03.09,0,.14.07.14.13v2.19c0,.08-.06.14-.14.14s-.14-.07-.14-.14v-1.97l-.27.13s-.03.01-.06.01c-.07,0-.13-.06-.13-.13,0-.06.04-.1.08-.12Z"/>
          <path class="cls-4" d="M40.86,41.77l.42-.21c.05-.03.08-.03.11-.03.09,0,.14.07.14.13v2.19c0,.08-.06.14-.14.14s-.14-.07-.14-.14v-1.97l-.27.13s-.03.01-.06.01c-.07,0-.13-.06-.13-.13,0-.06.04-.1.08-.12Z"/>
          <path class="cls-4" d="M43.06,41.77l.42-.21c.05-.03.08-.03.11-.03.09,0,.14.07.14.13v2.19c0,.08-.06.14-.14.14s-.14-.07-.14-.14v-1.97l-.27.13s-.03.01-.06.01c-.07,0-.13-.06-.13-.13,0-.06.04-.1.08-.12Z"/>
          <path class="cls-4" d="M45.33,42.27c0-.44.17-.75.62-.75s.63.3.63.75v.99c0,.43-.17.74-.63.74s-.62-.3-.62-.74v-.99ZM45.62,43.28c0,.26.07.45.33.45s.34-.19.34-.45v-1.03c0-.31-.1-.46-.34-.46s-.34.14-.34.46v1.03Z"/>
          <path class="cls-4" d="M43.13,46.09c0-.44.17-.75.62-.75s.63.3.63.75v.99c0,.43-.17.74-.63.74s-.62-.3-.62-.74v-.99ZM43.42,47.09c0,.26.07.45.33.45s.34-.19.34-.45v-1.03c0-.31-.1-.46-.34-.46s-.34.14-.34.46v1.03Z"/>
          <path class="cls-4" d="M45.86,45.58l.42-.21c.05-.03.08-.03.11-.03.09,0,.14.07.14.13v2.19c0,.08-.06.14-.14.14s-.14-.07-.14-.14v-1.97l-.27.13s-.03.01-.06.01c-.07,0-.13-.06-.13-.13,0-.06.04-.1.08-.12Z"/>
        </g>
        <g>
          <path class="cls-1" d="M94,8.14c0-.44.17-.75.62-.75s.63.3.63.75v.99c0,.43-.17.74-.63.74s-.62-.3-.62-.74v-.99ZM94.28,9.14c0,.26.07.45.33.45s.34-.19.34-.45v-1.03c0-.31-.1-.46-.34-.46s-.34.14-.34.46v1.03Z"/>
          <path class="cls-1" d="M96.73,7.64l.42-.21c.05-.03.08-.03.11-.03.09,0,.14.07.14.13v2.19c0,.08-.06.14-.14.14s-.14-.07-.14-.14v-1.97l-.27.13s-.03.01-.06.01c-.07,0-.13-.06-.13-.13,0-.06.04-.1.08-.12Z"/>
        </g>
        <g>
          <path class="cls-1" d="M91.56,10.93l.42-.21c.05-.03.08-.03.11-.03.09,0,.14.07.14.13v2.19c0,.08-.06.14-.14.14s-.14-.07-.14-.14v-1.97l-.27.13s-.03.01-.06.01c-.07,0-.13-.06-.13-.13,0-.06.04-.1.08-.12Z"/>
          <path class="cls-1" d="M93.84,11.44c0-.44.17-.75.62-.75s.63.3.63.75v.99c0,.43-.17.74-.63.74s-.62-.3-.62-.74v-.99ZM94.13,12.44c0,.26.07.45.33.45s.34-.19.34-.45v-1.03c0-.31-.1-.46-.34-.46s-.34.14-.34.46v1.03Z"/>
          <path class="cls-1" d="M96.65,11.44c0-.44.17-.75.62-.75s.63.3.63.75v.99c0,.43-.17.74-.63.74s-.62-.3-.62-.74v-.99ZM96.93,12.44c0,.26.07.45.33.45s.34-.19.34-.45v-1.03c0-.31-.1-.46-.34-.46s-.34.14-.34.46v1.03Z"/>
          <path class="cls-1" d="M92.17,14.75l.42-.21c.05-.03.08-.03.11-.03.09,0,.14.07.14.13v2.19c0,.08-.06.14-.14.14s-.14-.07-.14-.14v-1.97l-.27.13s-.03.01-.06.01c-.07,0-.13-.06-.13-.13,0-.06.04-.1.08-.12Z"/>
          <path class="cls-1" d="M94.44,15.25c0-.44.17-.75.62-.75s.63.3.63.75v.99c0,.43-.17.74-.63.74s-.62-.3-.62-.74v-.99ZM94.73,16.26c0,.26.07.45.33.45s.34-.19.34-.45v-1.03c0-.31-.1-.46-.34-.46s-.34.14-.34.46v1.03Z"/>
          <path class="cls-1" d="M97.18,14.75l.42-.21c.05-.03.08-.03.11-.03.09,0,.14.07.14.13v2.19c0,.08-.06.14-.14.14s-.14-.07-.14-.14v-1.97l-.27.13s-.03.01-.06.01c-.07,0-.13-.06-.13-.13,0-.06.04-.1.08-.12Z"/>
          <path class="cls-1" d="M92.17,18.56l.42-.21c.05-.03.08-.03.11-.03.09,0,.14.07.14.13v2.19c0,.08-.06.14-.14.14s-.14-.07-.14-.14v-1.97l-.27.13s-.03.01-.06.01c-.07,0-.13-.06-.13-.13,0-.06.04-.1.08-.12Z"/>
          <path class="cls-1" d="M94.37,18.56l.42-.21c.05-.03.08-.03.11-.03.09,0,.14.07.14.13v2.19c0,.08-.06.14-.14.14s-.14-.07-.14-.14v-1.97l-.27.13s-.03.01-.06.01c-.07,0-.13-.06-.13-.13,0-.06.04-.1.08-.12Z"/>
          <path class="cls-1" d="M96.65,19.07c0-.44.17-.75.62-.75s.63.3.63.75v.99c0,.43-.17.74-.63.74s-.62-.3-.62-.74v-.99ZM96.93,20.07c0,.26.07.45.33.45s.34-.19.34-.45v-1.03c0-.31-.1-.46-.34-.46s-.34.14-.34.46v1.03Z"/>
          <path class="cls-1" d="M94.44,22.88c0-.44.17-.75.62-.75s.63.3.63.75v.99c0,.43-.17.74-.63.74s-.62-.3-.62-.74v-.99ZM94.73,23.89c0,.26.07.45.33.45s.34-.19.34-.45v-1.03c0-.31-.1-.46-.34-.46s-.34.14-.34.46v1.03Z"/>
          <path class="cls-1" d="M97.18,22.38l.42-.21c.05-.03.08-.03.11-.03.09,0,.14.07.14.13v2.19c0,.08-.06.14-.14.14s-.14-.07-.14-.14v-1.97l-.27.13s-.03.01-.06.01c-.07,0-.13-.06-.13-.13,0-.06.04-.1.08-.12Z"/>
        </g>
      </g>
    </g>
  </g>
</svg>